<svg width="104" height="75" viewBox="0 0 104 75" fill="none" xmlns="http://www.w3.org/2000/svg">
<path d="M57.79 48.25H46.21C43.47 48.25 41.25 46.02 41.25 43.28V35.87C41.25 34.51 42.09 32.8 43.17 31.96L48.56 27.76C50.18 26.5 52.77 26.44 54.45 27.62L60.63 31.95C61.82 32.78 62.75 34.56 62.75 36.01V43.29C62.75 46.02 60.53 48.25 57.79 48.25ZM49.48 28.94L44.09 33.14C43.38 33.7 42.75 34.97 42.75 35.87V43.28C42.75 45.19 44.3 46.75 46.21 46.75H57.79C59.7 46.75 61.25 45.2 61.25 43.29V36.01C61.25 35.05 60.56 33.72 59.77 33.18L53.59 28.85C52.45 28.05 50.57 28.09 49.48 28.94Z" fill="#9DB2CE"/>
<path d="M52 44.25C51.59 44.25 51.25 43.91 51.25 43.5V40.5C51.25 40.09 51.59 39.75 52 39.75C52.41 39.75 52.75 40.09 52.75 40.5V43.5C52.75 43.91 52.41 44.25 52 44.25Z" fill="#9DB2CE"/>
</svg>
