<svg width="113" height="81" viewBox="0 0 113 81" fill="none" xmlns="http://www.w3.org/2000/svg">
<path d="M67.3333 36.1388C68.5119 36.4938 69.3333 37.5488 69.3333 38.76V44.1175C69.3333 45.5375 68.2039 46.7425 66.6933 46.8588C66.2399 46.8925 65.7866 46.9238 65.3333 46.9488V50.8125L61.3333 47.0625C59.5279 47.0625 57.7413 46.9938 55.9733 46.8588C55.5884 46.8296 55.214 46.7266 54.8733 46.5563M67.3333 36.1388C67.1272 36.0766 66.9143 36.0367 66.6986 36.02C63.1278 35.7421 59.5387 35.7421 55.9679 36.02C54.4599 36.1375 53.3333 37.3413 53.3333 38.76V44.1175C53.3333 45.1638 53.9466 46.0925 54.8733 46.5563M67.3333 36.1388V33.7963C67.3333 31.77 65.7973 30.0138 63.6533 29.7525C60.8944 29.4172 58.1152 29.2494 55.3333 29.25C52.5133 29.25 49.7359 29.4213 47.0133 29.7525C44.8693 30.0138 43.3333 31.77 43.3333 33.7963V41.5788C43.3333 43.605 44.8693 45.3613 47.0133 45.6225C47.7826 45.7163 48.5559 45.7975 49.3333 45.865V51.75L54.8733 46.5563" stroke="#9DB2CE" stroke-width="1.5" stroke-linecap="round" stroke-linejoin="round"/>

</svg>
